<svg width="64" height="64" viewBox="0 0 64 64" fill="none" xmlns="http://www.w3.org/2000/svg">
<path d="M31.9999 5.33333C25.0133 5.33333 19.3333 11.0133 19.3333 18C19.3333 24.8533 24.6933 30.4 31.6799 30.64C31.8933 30.6133 32.1066 30.6133 32.2666 30.64C32.3199 30.64 32.3466 30.64 32.3999 30.64C32.4266 30.64 32.4266 30.64 32.4533 30.64C39.2799 30.4 44.6399 24.8533 44.6666 18C44.6666 11.0133 38.9866 5.33333 31.9999 5.33333Z" fill="#5F6265"/>
<path d="M45.5466 37.7333C38.1066 32.7733 25.9732 32.7733 18.4799 37.7333C15.0932 40 13.2266 43.0667 13.2266 46.3467C13.2266 49.6267 15.0932 52.6667 18.4532 54.9067C22.1866 57.4133 27.0932 58.6667 31.9999 58.6667C36.9066 58.6667 41.8132 57.4133 45.5466 54.9067C48.9066 52.64 50.7732 49.6 50.7732 46.2933C50.7466 43.0133 48.9066 39.9733 45.5466 37.7333Z" fill="#5F6265"/>
</svg>
