<svg width="64" height="64" viewBox="0 0 64 64" fill="none" xmlns="http://www.w3.org/2000/svg">
<path d="M42.6666 5.33333H21.3333C10.6666 5.33333 5.33325 10.6667 5.33325 21.3333V56C5.33325 57.4667 6.53325 58.6667 7.99992 58.6667H42.6666C53.3332 58.6667 58.6666 53.3333 58.6666 42.6667V21.3333C58.6666 10.6667 53.3332 5.33333 42.6666 5.33333ZM29.6266 44.4267C28.9599 45.0933 27.7333 45.7067 26.8266 45.84L21.2799 46.6133C21.0666 46.64 20.8533 46.6667 20.6666 46.6667C19.7333 46.6667 18.8799 46.3467 18.2666 45.7333C17.5199 44.9867 17.1999 43.8933 17.3866 42.72L18.1599 37.1733C18.2933 36.2667 18.9066 35.0133 19.5733 34.3733L29.6266 24.32C29.7866 24.8 29.9999 25.28 30.2399 25.8133C30.4799 26.2933 30.7199 26.7733 30.9866 27.2267C31.1999 27.6 31.4399 27.9733 31.6532 28.24C31.9199 28.64 32.1866 28.9867 32.3733 29.1733C32.4799 29.3333 32.5866 29.44 32.6132 29.4933C33.1999 30.16 33.8132 30.8 34.3999 31.28C34.5599 31.44 34.6666 31.52 34.6933 31.5467C35.0399 31.8133 35.3599 32.1067 35.6799 32.2933C36.0266 32.56 36.3999 32.8 36.7733 33.0133C37.2266 33.28 37.7066 33.5467 38.2132 33.7867C38.7199 34.0267 39.1999 34.2133 39.6799 34.3733L29.6266 44.4267ZM44.1332 29.9467L42.0532 32.0267C41.9199 32.16 41.7332 32.24 41.5466 32.24C41.4932 32.24 41.3866 32.24 41.3332 32.2133C36.7466 30.9067 33.0933 27.2533 31.7866 22.6667C31.7066 22.4267 31.7866 22.16 31.9732 21.9733L34.0799 19.8667C37.5199 16.4267 40.7732 16.5067 44.1332 19.8667C45.8399 21.5733 46.6932 23.2267 46.6666 24.9333C46.6666 26.6133 45.8399 28.24 44.1332 29.9467Z" fill="white"/>
</svg>
