<svg width="64" height="64" viewBox="0 0 64 64" fill="none" xmlns="http://www.w3.org/2000/svg">
<path d="M25.5201 50.1867C25.0134 50.1867 24.5068 50 24.1068 49.6L7.92009 33.4133C7.14675 32.64 7.14675 31.36 7.92009 30.5867L24.1068 14.4C24.8801 13.6267 26.1601 13.6267 26.9334 14.4C27.7068 15.1733 27.7068 16.4533 26.9334 17.2267L12.1601 32L26.9334 46.7733C27.7068 47.5467 27.7068 48.8267 26.9334 49.6C26.5601 50 26.0268 50.1867 25.5201 50.1867Z" fill="#5F6265"/>
<path d="M54.6666 34H9.78662C8.69329 34 7.78662 33.0933 7.78662 32C7.78662 30.9067 8.69329 30 9.78662 30H54.6666C55.76 30 56.6666 30.9067 56.6666 32C56.6666 33.0933 55.76 34 54.6666 34Z" fill="#5F6265"/>
</svg>
