<svg width="56" height="56" viewBox="0 0 56 56" fill="none" xmlns="http://www.w3.org/2000/svg">
<rect width="56" height="56" rx="16" fill="#689BFF"/>
<path d="M32 18H24C20 18 18 20 18 24V37C18 37.55 18.45 38 19 38H32C36 38 38 36 38 32V24C38 20 36 18 32 18ZM27.11 32.66C26.86 32.91 26.4 33.14 26.06 33.19L23.98 33.48C23.9 33.49 23.82 33.5 23.75 33.5C23.4 33.5 23.08 33.38 22.85 33.15C22.57 32.87 22.45 32.46 22.52 32.02L22.81 29.94C22.86 29.6 23.09 29.13 23.34 28.89L27.11 25.12C27.17 25.3 27.25 25.48 27.34 25.68C27.43 25.86 27.52 26.04 27.62 26.21C27.7 26.35 27.79 26.49 27.87 26.59C27.97 26.74 28.07 26.87 28.14 26.94C28.18 27 28.22 27.04 28.23 27.06C28.45 27.31 28.68 27.55 28.9 27.73C28.96 27.79 29 27.82 29.01 27.83C29.14 27.93 29.26 28.04 29.38 28.11C29.51 28.21 29.65 28.3 29.79 28.38C29.96 28.48 30.14 28.58 30.33 28.67C30.52 28.76 30.7 28.83 30.88 28.89L27.11 32.66ZM32.55 27.23L31.77 28.01C31.72 28.06 31.65 28.09 31.58 28.09C31.56 28.09 31.52 28.09 31.5 28.08C29.78 27.59 28.41 26.22 27.92 24.5C27.89 24.41 27.92 24.31 27.99 24.24L28.78 23.45C30.07 22.16 31.29 22.19 32.55 23.45C33.19 24.09 33.51 24.71 33.5 25.35C33.5 25.98 33.19 26.59 32.55 27.23Z" fill="white"/>
</svg>
