<svg width="16" height="16" viewBox="0 0 16 16" fill="none" xmlns="http://www.w3.org/2000/svg">
<path d="M7.99998 1.33325C4.32665 1.33325 1.33331 4.32658 1.33331 7.99992C1.33331 11.6733 4.32665 14.6666 7.99998 14.6666C11.6733 14.6666 14.6666 11.6733 14.6666 7.99992C14.6666 4.32658 11.6733 1.33325 7.99998 1.33325ZM7.49998 5.33325C7.49998 5.05992 7.72665 4.83325 7.99998 4.83325C8.27331 4.83325 8.49998 5.05992 8.49998 5.33325V8.66658C8.49998 8.93992 8.27331 9.16658 7.99998 9.16658C7.72665 9.16658 7.49998 8.93992 7.49998 8.66658V5.33325ZM8.61331 10.9199C8.57998 11.0066 8.53331 11.0733 8.47331 11.1399C8.40665 11.1999 8.33331 11.2466 8.25331 11.2799C8.17331 11.3133 8.08665 11.3333 7.99998 11.3333C7.91331 11.3333 7.82665 11.3133 7.74665 11.2799C7.66665 11.2466 7.59331 11.1999 7.52665 11.1399C7.46665 11.0733 7.41998 11.0066 7.38665 10.9199C7.35331 10.8399 7.33331 10.7533 7.33331 10.6666C7.33331 10.5799 7.35331 10.4933 7.38665 10.4133C7.41998 10.3333 7.46665 10.2599 7.52665 10.1933C7.59331 10.1333 7.66665 10.0866 7.74665 10.0533C7.90665 9.98658 8.09331 9.98658 8.25331 10.0533C8.33331 10.0866 8.40665 10.1333 8.47331 10.1933C8.53331 10.2599 8.57998 10.3333 8.61331 10.4133C8.64665 10.4933 8.66665 10.5799 8.66665 10.6666C8.66665 10.7533 8.64665 10.8399 8.61331 10.9199Z" fill="white"/>
</svg>
