<svg width="16" height="16" viewBox="0 0 16 16" fill="none" xmlns="http://www.w3.org/2000/svg">
<path d="M7.99998 1.33325C4.32665 1.33325 1.33331 4.32659 1.33331 7.99992C1.33331 11.6733 4.32665 14.6666 7.99998 14.6666C11.6733 14.6666 14.6666 11.6733 14.6666 7.99992C14.6666 4.32659 11.6733 1.33325 7.99998 1.33325ZM10.24 9.53325C10.4333 9.72658 10.4333 10.0466 10.24 10.2399C10.14 10.3399 10.0133 10.3866 9.88665 10.3866C9.75998 10.3866 9.63331 10.3399 9.53331 10.2399L7.99998 8.70658L6.46665 10.2399C6.36665 10.3399 6.23998 10.3866 6.11331 10.3866C5.98665 10.3866 5.85998 10.3399 5.75998 10.2399C5.56665 10.0466 5.56665 9.72658 5.75998 9.53325L7.29331 7.99992L5.75998 6.46658C5.56665 6.27325 5.56665 5.95325 5.75998 5.75992C5.95331 5.56659 6.27331 5.56659 6.46665 5.75992L7.99998 7.29325L9.53331 5.75992C9.72665 5.56659 10.0466 5.56659 10.24 5.75992C10.4333 5.95325 10.4333 6.27325 10.24 6.46658L8.70665 7.99992L10.24 9.53325Z" fill="white"/>
</svg>
