<svg width="64" height="64" viewBox="0 0 64 64" fill="none" xmlns="http://www.w3.org/2000/svg">
<path d="M52.7733 11.2533C44.88 3.38667 32.08 3.38667 24.24 11.2533C18.72 16.72 17.0667 24.5867 19.2 31.52L6.66665 44.0533C5.78665 44.96 5.17332 46.7467 5.35998 48.0267L6.15998 53.84C6.45332 55.76 8.23998 57.5733 10.16 57.84L15.9733 58.64C17.2533 58.8267 19.04 58.24 19.9467 57.3067L22.1333 55.12C22.6667 54.6133 22.6667 53.76 22.1333 53.2267L16.96 48.0533C16.1867 47.28 16.1867 46 16.96 45.2267C17.7333 44.4533 19.0133 44.4533 19.7867 45.2267L24.9867 50.4267C25.4933 50.9333 26.3466 50.9333 26.8533 50.4267L32.5066 44.8C39.4133 46.96 47.28 45.28 52.7733 39.8133C60.64 31.9467 60.64 19.12 52.7733 11.2533ZM38.6666 32C34.9867 32 32 29.0133 32 25.3333C32 21.6533 34.9867 18.6667 38.6666 18.6667C42.3466 18.6667 45.3333 21.6533 45.3333 25.3333C45.3333 29.0133 42.3466 32 38.6666 32Z" fill="#5F6265"/>
</svg>
