<svg width="256" height="256" viewBox="0 0 256 256" fill="none" xmlns="http://www.w3.org/2000/svg">
<path fill-rule="evenodd" clip-rule="evenodd" d="M126.274 16L220.55 71.4546V101.168V153.58V182.368L126.274 237.823L32 182.368V71.4546L126.274 16ZM220.55 153.58V101.168L196.206 139.506L220.55 153.58ZM196.206 144.146L214.321 154.697L126.274 206.253L61.0701 167.898L79.1679 157.178L126.274 184.888L196.206 144.146ZM81.1061 153.478L126.274 180.047L196.206 139.506L220.55 101.168L126.279 156.583L100.844 141.755V112.604L146.311 85.5612L126.274 73.7754L81.1061 100.345V153.478ZM128.329 70.1442L150.402 83.1278L168.463 72.3858L128.329 48.7787V70.1442ZM124.219 48.7785L58.8308 87.2417V164.376L76.996 153.617V97.9223L124.219 70.1442V48.7785ZM56.6337 83.6942L126.274 42.7297L195.774 83.6107L214.38 72.6657L126.274 20.8399L38.243 72.6222L56.6337 83.6942ZM36.1101 76.2068V179.945L124.219 231.774V209.884L54.7207 169.004V87.4111L36.1101 76.2068ZM128.329 209.884V231.774L216.44 179.864V158.292L128.329 209.884ZM216.44 98.7084V76.2945L128.329 128.122V150.536L216.44 98.7084ZM124.219 150.553V128.152L104.954 117.353V139.322L124.219 150.553ZM107.07 113.755L126.251 124.506L195.774 83.6107L176.691 72.3858L107.07 113.755Z" fill="#2363DE"/>
<path d="M128.316 209.883V231.772L216.425 179.863V158.29L128.316 209.883Z" fill="#689BFF"/>
<path d="M36.1055 76.2074V179.947L124.215 231.775V209.884L54.7161 169.004V87.4118L36.1055 76.2074Z" fill="#689BFF"/>
<path d="M216.425 76.2938V98.7078L128.316 150.536V128.122L216.425 76.2938Z" fill="#689BFF"/>
<path d="M214.374 72.6664L195.768 83.6114L126.245 124.506L107.064 113.755L176.685 72.3866L126.268 42.7306L56.6276 83.6949L38.2368 72.6231L126.268 20.8408L214.374 72.6664Z" fill="#689BFF"/>
<path d="M124.213 150.554V128.153L104.947 117.354V139.323L124.213 150.554Z" fill="#689BFF"/>
<path d="M214.321 154.697L196.206 144.146L126.274 184.888L79.1681 157.178L61.0703 167.898L126.274 206.253L214.321 154.697Z" fill="#689BFF"/>
<path d="M128.316 70.1439L150.388 83.1275L168.449 72.3854L128.316 48.7782V70.1439Z" fill="#689BFF"/>
<path d="M124.211 48.7782L58.8223 87.2415V164.376L76.9875 153.615V97.9219L124.211 70.1439V48.7782Z" fill="#689BFF"/>
</svg>
