<svg width="64" height="64" viewBox="0 0 64 64" fill="none" xmlns="http://www.w3.org/2000/svg">
<path d="M30.6666 58C15.5999 58 3.33325 45.7333 3.33325 30.6667C3.33325 15.6 15.5999 3.33333 30.6666 3.33333C45.7333 3.33333 57.9999 15.6 57.9999 30.6667C57.9999 45.7333 45.7333 58 30.6666 58ZM30.6666 7.33333C17.7866 7.33333 7.33325 17.8133 7.33325 30.6667C7.33325 43.52 17.7866 54 30.6666 54C43.5466 54 53.9999 43.52 53.9999 30.6667C53.9999 17.8133 43.5466 7.33333 30.6666 7.33333Z" fill="#5F6265"/>
<path d="M58.6668 60.6667C58.1601 60.6667 57.6534 60.48 57.2534 60.08L51.9201 54.7467C51.1468 53.9733 51.1468 52.6933 51.9201 51.92C52.6934 51.1467 53.9734 51.1467 54.7468 51.92L60.0801 57.2533C60.8534 58.0267 60.8534 59.3067 60.0801 60.08C59.6801 60.48 59.1734 60.6667 58.6668 60.6667Z" fill="#5F6265"/>
</svg>
