<svg width="64" height="64" viewBox="0 0 64 64" fill="none" xmlns="http://www.w3.org/2000/svg">
<path d="M56.6666 24.4C50.5066 14.72 41.4932 9.14667 31.9999 9.14667C27.2533 9.14667 22.6399 10.5333 18.4266 13.12C14.2133 15.7333 10.4266 19.5467 7.33325 24.4C4.66659 28.5867 4.66659 35.3867 7.33325 39.5733C13.4933 49.28 22.5066 54.8267 31.9999 54.8267C36.7466 54.8267 41.3599 53.44 45.5732 50.8533C49.7866 48.24 53.5732 44.4267 56.6666 39.5733C59.3332 35.4133 59.3332 28.5867 56.6666 24.4ZM31.9999 42.7733C26.0266 42.7733 21.2266 37.9467 21.2266 32C21.2266 26.0533 26.0266 21.2267 31.9999 21.2267C37.9733 21.2267 42.7733 26.0533 42.7733 32C42.7733 37.9467 37.9733 42.7733 31.9999 42.7733Z" fill="#5F6265"/>
<path d="M31.9999 24.3733C27.8132 24.3733 24.3999 27.7867 24.3999 32C24.3999 36.1867 27.8132 39.6 31.9999 39.6C36.1866 39.6 39.6266 36.1867 39.6266 32C39.6266 27.8133 36.1866 24.3733 31.9999 24.3733Z" fill="#5F6265"/>
</svg>
