<svg width="64" height="64" viewBox="0 0 64 64" fill="none" xmlns="http://www.w3.org/2000/svg">
<path d="M21.0132 32.1867C21.0132 31.0933 21.9199 30.1867 23.0132 30.1867H37.6266V7.62666C37.5999 6.34666 36.5866 5.33333 35.3066 5.33333C19.5999 5.33333 8.63989 16.2933 8.63989 32C8.63989 47.7067 19.5999 58.6667 35.3066 58.6667C36.5599 58.6667 37.5999 57.6533 37.5999 56.3733V34.16H23.0132C21.8932 34.1867 21.0132 33.28 21.0132 32.1867Z" fill="#EA3829"/>
<path d="M54.7734 30.7733L47.2001 23.1733C46.4268 22.4 45.1468 22.4 44.3734 23.1733C43.6001 23.9467 43.6001 25.2267 44.3734 26L48.5334 30.16H37.6001V34.16H48.5068L44.3468 38.32C43.5734 39.0933 43.5734 40.3733 44.3468 41.1467C44.7468 41.5467 45.2534 41.7333 45.7601 41.7333C46.2668 41.7333 46.7734 41.5467 47.1734 41.1467L54.7468 33.5467C55.5468 32.8 55.5468 31.5467 54.7734 30.7733Z" fill="#EA3829"/>
</svg>
