<svg width="64" height="64" viewBox="0 0 64 64" fill="none" xmlns="http://www.w3.org/2000/svg">
<path d="M31.9999 5.33333C17.3066 5.33333 5.33325 17.3067 5.33325 32C5.33325 46.6933 17.3066 58.6667 31.9999 58.6667C46.6933 58.6667 58.6666 46.6933 58.6666 32C58.6666 17.3067 46.6933 5.33333 31.9999 5.33333ZM44.7466 25.8667L29.6266 40.9867C29.2532 41.36 28.7466 41.5733 28.2133 41.5733C27.6799 41.5733 27.1733 41.36 26.7999 40.9867L19.2533 33.44C18.4799 32.6667 18.4799 31.3867 19.2533 30.6133C20.0266 29.84 21.3066 29.84 22.0799 30.6133L28.2133 36.7467L41.9199 23.04C42.6933 22.2667 43.9733 22.2667 44.7466 23.04C45.5199 23.8133 45.5199 25.0667 44.7466 25.8667Z" fill="white"/>
</svg>
