<svg width="48" height="48" viewBox="0 0 48 48" fill="none" xmlns="http://www.w3.org/2000/svg">
<rect width="48" height="48" rx="16" fill="#689BFF"/>
<path d="M14.71 29.02L16.45 25.54C16.93 24.57 16.93 23.44 16.45 22.47L14.71 18.98C13.22 16 16.43 12.85 19.38 14.41L20.92 15.23C21.14 15.34 21.31 15.52 21.4 15.74L27.09 28.39C27.32 28.91 27.11 29.52 26.61 29.78L19.37 33.59C16.43 35.15 13.22 32 14.71 29.02Z" fill="white"/>
<path d="M28.31 27.6L24.58 19.32C24.16 18.39 25.16 17.45 26.06 17.93L31.83 20.97C34.28 22.26 34.28 25.76 31.83 27.05L29.79 28.12C29.24 28.4 28.57 28.17 28.31 27.6Z" fill="white"/>
</svg>
