<svg width="64" height="64" viewBox="0 0 64 64" fill="none" xmlns="http://www.w3.org/2000/svg">
<path d="M7.22672 45.3867L11.8667 36.1067C13.1467 33.52 13.1467 30.5067 11.8667 27.92L7.22672 18.6133C3.25339 10.6667 11.8134 2.26666 19.6801 6.42666L23.7867 8.61333C24.3734 8.90666 24.8267 9.38666 25.0667 9.97333L40.2401 43.7067C40.8534 45.0933 40.2934 46.72 38.9601 47.4133L19.6534 57.5733C11.8134 61.7333 3.25339 53.3333 7.22672 45.3867Z" fill="white"/>
<path d="M43.4933 41.6L33.5466 19.52C32.4266 17.04 35.0933 14.5333 37.4933 15.8133L52.88 23.92C59.4133 27.36 59.4133 36.6933 52.88 40.1333L47.44 42.9867C45.9733 43.7333 44.1866 43.12 43.4933 41.6Z" fill="white"/>
</svg>
