<svg width="64" height="64" viewBox="0 0 64 64" fill="none" xmlns="http://www.w3.org/2000/svg">
<path d="M56.1867 13.9467C51.8933 13.52 47.6 13.2 43.28 12.96V12.9333L42.6933 9.46666C42.2933 7.01333 41.7067 3.33333 35.4667 3.33333H28.48C22.2667 3.33333 21.68 6.85333 21.2533 9.43999L20.6933 12.8533C18.2133 13.0133 15.7333 13.1733 13.2533 13.4133L7.81335 13.9467C6.69335 14.0533 5.89335 15.04 6.00001 16.1333C6.10668 17.2267 7.06668 18.0267 8.18668 17.92L13.6267 17.3867C27.6 16 41.68 16.5333 55.8134 17.9467C55.8934 17.9467 55.9467 17.9467 56.0267 17.9467C57.04 17.9467 57.92 17.1733 58.0267 16.1333C58.1067 15.04 57.3067 14.0533 56.1867 13.9467Z" fill="#EA3829"/>
<path d="M51.2799 21.7067C50.6399 21.04 49.7599 20.6667 48.8532 20.6667H15.1466C14.2399 20.6667 13.3332 21.04 12.7199 21.7067C12.1066 22.3733 11.7599 23.28 11.8132 24.2133L13.4666 51.5733C13.7599 55.6267 14.1332 60.6933 23.4399 60.6933H40.5599C49.8666 60.6933 50.2399 55.6533 50.5332 51.5733L52.1866 24.24C52.2399 23.28 51.8932 22.3733 51.2799 21.7067ZM36.4266 47.3333H27.5466C26.4532 47.3333 25.5466 46.4267 25.5466 45.3333C25.5466 44.24 26.4532 43.3333 27.5466 43.3333H36.4266C37.5199 43.3333 38.4266 44.24 38.4266 45.3333C38.4266 46.4267 37.5199 47.3333 36.4266 47.3333ZM38.6666 36.6667H25.3332C24.2399 36.6667 23.3332 35.76 23.3332 34.6667C23.3332 33.5733 24.2399 32.6667 25.3332 32.6667H38.6666C39.7599 32.6667 40.6666 33.5733 40.6666 34.6667C40.6666 35.76 39.7599 36.6667 38.6666 36.6667Z" fill="#EA3829"/>
</svg>
